<?xml version="1.0" encoding="UTF-8"?>
<svg id="Layer_2" xmlns="http://www.w3.org/2000/svg" viewBox="0 0 95.32 51.52">
  <defs>
    <style>
      .cls-1 {
        fill: #fff;
      }
    </style>
  </defs>
  <g id="Layer_1-2" data-name="Layer_1">
    <g>
      <path class="cls-1" d="M16.74,8.37h.38v3.12h-.4c-.09-.86-.4-1.54-.94-2.02-.53-.49-1.2-.73-2.02-.73-.72,0-1.3.18-1.74.55-.44.36-.66.85-.66,1.45,0,.56.18,1.07.54,1.53.36.46,1.15,1.06,2.36,1.78,1.41.84,2.35,1.58,2.84,2.2.48.63.73,1.35.73,2.16,0,1.05-.37,1.94-1.11,2.68-.74.74-1.63,1.11-2.68,1.11-.6,0-1.38-.17-2.31-.5-.38-.14-.63-.2-.74-.2-.22,0-.39.17-.51.51h-.4v-3.6h.4c0,.99.33,1.79.97,2.39.64.6,1.38.9,2.24.9.81,0,1.46-.22,1.94-.65.49-.43.73-1.01.73-1.73,0-.54-.2-1.05-.6-1.54-.4-.49-1.24-1.13-2.51-1.9-1.04-.64-1.73-1.15-2.08-1.52-.35-.37-.6-.78-.77-1.22-.17-.44-.25-.93-.25-1.46,0-1.02.33-1.85,1.01-2.49.67-.64,1.54-.95,2.62-.95.59,0,1.23.12,1.93.35.33.11.55.16.68.16.11,0,.18-.02.22-.07.04-.05.08-.15.12-.31"/>
      <path class="cls-1" d="M22.93,15.67h3.76l-1.89-5.64-1.87,5.64ZM27.15,21.88v-.39c.76,0,1.15-.27,1.15-.8,0-.15-.04-.32-.1-.51l-1.24-3.7h-4.28l-.91,2.68c-.23.68-.34,1.17-.34,1.47,0,.56.35.85,1.05.87v.39h-3.44v-.39c.49-.07.88-.23,1.15-.49.27-.26.55-.79.83-1.6l3.68-10.99h1.37l3.87,11.48c.23.68.46,1.11.71,1.31.25.2.64.3,1.19.3v.39h-4.69Z"/>
      <path class="cls-1" d="M45.67,8.56h3.15v.39c-1,.02-1.5.61-1.5,1.77,0,.1,0,.2.01.31l.67,8.21c.08.88.23,1.46.45,1.75.22.29.63.46,1.21.51v.39h-4.79v-.39c.51-.08.87-.25,1.08-.5.21-.25.31-.64.31-1.15,0-.11,0-.22-.01-.35l-.71-8.62-4.56,11.01h-.35l-4.5-10.99-.75,8.19c0,.13-.01.25-.01.36,0,1.15.58,1.83,1.73,2.04v.39h-4.15v-.39c.55-.08.95-.27,1.2-.59.25-.31.41-.94.51-1.87l.81-9.17c-.47-.51-1.05-.82-1.74-.93v-.39h3.38l4.26,10.48,4.32-10.48Z"/>
      <path class="cls-1" d="M57.19,22.21c-1.41,0-2.52-.42-3.32-1.26-.81-.84-1.21-1.95-1.21-3.33v-6.55c0-.79-.11-1.35-.31-1.66-.21-.31-.61-.47-1.2-.47v-.39h4.82v.39c-.6,0-1,.15-1.21.45-.21.3-.32.85-.32,1.65v6.75c0,1.09.3,1.95.9,2.57.58.61,1.38.92,2.4.94h.1c1.7,0,2.59-.94,2.59-.94.6-.62.9-1.48.9-2.57v-6.75c0-.8-.11-1.34-.32-1.65-.21-.3-.62-.45-1.21-.45v-.39h3.89v.39c-.59,0-.99.15-1.2.47-.21.31-.31.86-.31,1.66v6.55c0,1.38-.09,2.49-.89,3.33-.81.84-1.77,1.26-3.18,1.26h-.9Z"/>
      <path class="cls-1" d="M74.11,13.77h.4v3.24h-.4c-.15-.57-.32-.92-.52-1.07-.21-.14-.65-.22-1.34-.22h-3.31v4.77c0,.33.07.57.22.7.15.14.4.2.76.2h2.33c.83,0,1.41-.04,1.73-.14.32-.09.59-.26.8-.5.22-.25.46-.65.71-1.2h.4l-.61,2.49h-9.6v-.39c.6,0,1-.15,1.2-.46.21-.31.31-.85.31-1.63v-8.33c0-.81-.11-1.37-.32-1.67-.21-.3-.61-.46-1.19-.46v-.39h9.6v2.23h-.25c-.14-.64-.33-1.06-.59-1.27-.25-.21-.8-.31-1.65-.31h-3.84v5.7h3.73c.51,0,.85-.09,1.04-.27.18-.18.32-.53.4-1.03"/>
      <path class="cls-1" d="M87.8,18.98h.4l-.82,2.91h-9.65v-.39c.54,0,.93-.17,1.16-.51.23-.34.35-.91.35-1.72v-8.39c0-.72-.11-1.22-.32-1.51-.22-.28-.61-.43-1.19-.43v-.39h4.77v.39c-.53,0-.91.16-1.14.49-.23.33-.35.86-.35,1.61v8.9c0,.49.1.83.31,1.01.21.18.61.27,1.2.27h2.65c.82,0,1.39-.14,1.71-.43.33-.28.63-.9.92-1.83"/>
      <path class="cls-1" d="M14.79,27.21h-1.4v6.09h1.64c.98,0,1.74-.28,2.3-.84.56-.56.83-1.3.83-2.23s-.31-1.63-.92-2.19c-.62-.56-1.43-.83-2.45-.83M14.47,33.86h-1.08v3.67c0,.79.11,1.34.34,1.65.22.31.62.47,1.19.47v.39h-4.79v-.39c.59,0,.99-.15,1.2-.47.21-.31.31-.86.31-1.65v-8.36c0-.79-.1-1.33-.31-1.63-.2-.3-.61-.45-1.2-.45v-.39h5.46c1.35,0,2.43.33,3.23.98.81.65,1.21,1.49,1.21,2.5,0,1.64-.92,2.73-2.75,3.27.4.26.79.61,1.18,1.06.38.45.89,1.2,1.51,2.25.7,1.16,1.24,1.92,1.63,2.28.39.36.8.56,1.22.59v.39h-2.73c-.56-.67-1.24-1.66-2.03-2.97-.85-1.37-1.51-2.25-1.99-2.63-.48-.38-1.01-.57-1.6-.57"/>
      <path class="cls-1" d="M33.4,31.75h.4v3.24h-.4c-.15-.57-.32-.92-.52-1.07-.21-.14-.65-.22-1.34-.22h-3.31v4.77c0,.33.07.57.22.7.15.14.4.2.76.2h2.33c.83,0,1.41-.04,1.73-.14.32-.09.59-.26.8-.51.22-.25.46-.64.71-1.2h.4l-.61,2.49h-9.6v-.39c.6,0,1-.15,1.2-.46.21-.31.31-.85.31-1.63v-8.33c0-.81-.11-1.37-.32-1.67-.21-.3-.61-.46-1.19-.46v-.39h9.6v2.23h-.25c-.14-.64-.33-1.06-.59-1.27-.25-.21-.8-.31-1.65-.31h-3.84v5.7h3.73c.51,0,.85-.09,1.04-.27.18-.18.32-.53.4-1.03"/>
      <path class="cls-1" d="M40.68,33.81h3.76l-1.89-5.64-1.87,5.64ZM44.91,40.03v-.39c.76,0,1.15-.27,1.15-.8,0-.15-.03-.32-.1-.51l-1.24-3.7h-4.28l-.91,2.68c-.23.67-.34,1.17-.34,1.47,0,.56.35.85,1.05.87v.39h-3.44v-.39c.49-.07.88-.23,1.15-.49.27-.26.55-.79.83-1.61l3.68-10.99h1.37l3.87,11.48c.23.68.46,1.11.71,1.31.25.2.64.3,1.19.3v.39h-4.69Z"/>
      <path class="cls-1" d="M61.63,37.12h.4l-.82,2.91h-9.65v-.39c.54,0,.93-.17,1.16-.51.23-.34.35-.91.35-1.72v-8.39c0-.72-.11-1.22-.32-1.51-.22-.28-.61-.43-1.19-.43v-.39h4.77v.39c-.53,0-.91.16-1.14.49-.23.33-.35.86-.35,1.61v8.9c0,.49.1.83.31,1.01.21.18.61.27,1.2.27h2.65c.82,0,1.39-.14,1.71-.43.33-.28.63-.9.92-1.83"/>
      <path class="cls-1" d="M70.94,27.35h-2.02v10.24c0,.8.1,1.35.3,1.63.2.28.58.42,1.15.42v.39h-4.71v-.39c.59,0,.98-.16,1.2-.48.21-.32.32-.86.32-1.63v-10.18h-1.93c-.92,0-1.6.15-2.02.44-.42.3-.66.78-.71,1.47h-.4v-3.06h.4c.36.33,1.02.5,2,.5h6.98c1.01,0,1.71-.17,2.11-.5h.42v3.06h-.26c-.17-.73-.46-1.24-.89-1.5-.43-.27-1.07-.4-1.92-.4"/>
      <path class="cls-1" d="M86.05,28.6l-3,4.73v4.2c0,.81.1,1.37.31,1.67.21.3.59.45,1.15.45v.39h-4.86v-.39c.66,0,1.1-.16,1.31-.48.21-.32.32-.86.32-1.64v-4.2l-2.84-4.42c-.47-.74-.85-1.22-1.15-1.44-.3-.23-.7-.35-1.23-.38v-.39h5.21v.39c-.92,0-1.37.21-1.37.62,0,.19.09.42.27.7l2.64,4.04,2.11-3.35c.31-.5.47-.93.47-1.28,0-.49-.29-.74-.88-.74v-.39h3.66v.39c-.49.03-.87.14-1.14.32-.27.19-.6.58-.98,1.19"/>
      <polygon class="cls-1" points="95.32 48.73 80.62 48.73 80.62 46.87 93.46 46.87 93.46 1.86 1.86 1.86 1.86 46.87 14.65 46.87 14.65 48.73 0 48.73 0 0 95.32 0 95.32 48.73"/>
      <path class="cls-1" d="M31.61,51.16c.37-.16.68-.36.94-.58v-2.13h-2.25v.37h1.85v1.58c-.1.08-.22.17-.35.24-.13.08-.27.14-.42.2-.15.06-.31.1-.48.14-.17.03-.34.05-.51.05-.37,0-.7-.06-.99-.19-.29-.13-.54-.3-.75-.52-.21-.22-.36-.48-.47-.79-.11-.31-.16-.64-.16-1h0c0-.35.06-.66.17-.96.11-.3.27-.56.47-.79.2-.23.44-.41.72-.54.28-.13.59-.2.92-.2.42,0,.76.06,1.04.19.28.13.52.28.74.47l.27-.31c-.14-.12-.28-.22-.42-.31-.14-.09-.3-.17-.46-.23-.16-.06-.33-.11-.52-.14-.19-.03-.39-.05-.62-.05-.41,0-.79.08-1.12.24-.34.16-.63.37-.87.63-.24.26-.42.57-.55.91-.13.34-.19.7-.19,1.08v.02c0,.39.06.76.19,1.1.13.35.31.65.55.91.24.26.53.46.87.61.35.15.74.22,1.18.22s.87-.08,1.24-.25"/>
      <path class="cls-1" d="M30.38,51.52c-.46,0-.86-.08-1.22-.23-.36-.16-.67-.37-.91-.64-.25-.27-.44-.58-.57-.94-.13-.36-.2-.74-.2-1.14s.07-.78.2-1.14c.14-.36.33-.68.58-.95.25-.27.55-.5.9-.66.35-.17.75-.25,1.17-.25.24,0,.45.02.64.05.2.03.38.08.55.15.17.07.33.15.48.24.15.09.29.2.44.32l.09.08-.42.49-.09-.08c-.21-.18-.44-.33-.71-.46-.26-.12-.59-.18-.99-.18-.32,0-.61.06-.88.19-.26.12-.5.29-.69.51-.19.21-.34.47-.45.75s-.16.59-.16.91c0,.36.05.68.16.97.11.29.25.54.45.75.2.21.43.38.71.49.4.18.92.24,1.44.13.16-.03.31-.08.46-.13.14-.06.28-.12.41-.19.11-.06.21-.13.29-.19v-1.41h-1.85v-.6h2.48v2.3l-.04.04c-.26.23-.59.43-.97.6h0c-.39.17-.82.26-1.28.26ZM30.33,45.8c-.39,0-.75.08-1.07.23-.32.15-.6.35-.83.61-.23.25-.41.54-.53.88-.12.33-.19.68-.19,1.04,0,.4.06.75.18,1.08.12.33.3.62.52.87.22.25.5.44.83.59.33.14.7.21,1.13.21s.83-.08,1.19-.24h0c.34-.15.63-.33.87-.53v-1.96h-2.01v.14h1.85v1.75l-.04.04c-.1.09-.23.17-.37.25-.13.08-.28.15-.44.21-.16.06-.33.11-.5.14-.56.11-1.13.05-1.58-.15-.3-.13-.57-.32-.79-.55-.21-.23-.38-.51-.49-.83-.11-.32-.17-.67-.17-1.03s.06-.69.17-1c.12-.31.28-.59.49-.83.21-.24.47-.43.76-.56.29-.14.62-.21.97-.21.43,0,.8.07,1.09.2.25.12.47.25.68.42l.11-.13c-.1-.08-.21-.16-.32-.22-.14-.09-.29-.16-.44-.22-.15-.06-.31-.1-.5-.14-.18-.03-.37-.05-.6-.05Z"/>
      <path class="cls-1" d="M37.61,48.65v-2.5h1.89c.51,0,.9.11,1.17.32s.42.51.42.89v.02c0,.2-.04.38-.12.54s-.19.29-.34.4c-.14.11-.31.19-.51.25-.2.06-.41.09-.64.09h-1.87ZM37.2,51.31h.41v-2.29h1.81l1.76,2.29h.52l-1.83-2.36c.23-.03.45-.09.64-.17s.37-.19.51-.32c.14-.13.26-.29.34-.47.08-.18.12-.39.12-.62h0c0-.22-.04-.4-.11-.58-.07-.18-.18-.33-.31-.46-.17-.17-.39-.3-.65-.4-.26-.1-.57-.15-.91-.15h-2.32v5.54Z"/>
      <path class="cls-1" d="M41.95,51.43h-.82l-.04-.04-1.73-2.25h-1.64v2.29h-.64v-5.77h2.44c.35,0,.67.05.95.15.28.1.51.25.69.43.14.14.25.31.33.5.08.19.12.39.12.61,0,.26-.04.49-.13.68-.09.2-.21.37-.37.51-.15.14-.33.25-.55.34-.15.06-.31.11-.48.14l1.85,2.4ZM41.25,51.19h.23l-1.8-2.34.2-.03c.23-.03.43-.09.62-.16.19-.08.35-.18.48-.3.13-.12.24-.26.31-.43.07-.17.11-.36.11-.57,0-.2-.03-.37-.1-.54-.07-.16-.16-.31-.28-.42-.16-.15-.36-.28-.61-.37-.25-.09-.54-.14-.87-.14h-2.21v5.3h.18v-2.29h1.97l.05.04,1.73,2.25ZM39.48,48.76h-1.98v-2.73h2.01c.53,0,.95.12,1.25.35.31.24.46.57.46.98,0,.24-.04.44-.14.61-.09.17-.21.32-.37.43-.16.12-.34.21-.55.27-.21.06-.44.09-.68.09ZM37.73,48.53h1.75c.22,0,.43-.03.61-.08.18-.05.34-.13.47-.23.13-.1.23-.22.3-.36.07-.14.11-.3.11-.48,0-.36-.12-.62-.37-.81-.26-.2-.63-.3-1.1-.3h-1.77v2.27Z"/>
      <path class="cls-1" d="M47.68,50.84c-.29-.13-.54-.31-.75-.53-.21-.22-.37-.49-.49-.79-.12-.3-.18-.63-.18-.97v-.02c0-.34.06-.66.17-.96.11-.3.28-.56.49-.79.21-.22.46-.4.74-.53.29-.13.6-.19.94-.19s.66.07.95.2c.29.13.54.31.75.53.21.22.37.49.49.79.12.3.18.63.18.97v.02c0,.34-.06.66-.17.96-.12.3-.28.56-.49.79s-.46.4-.74.53c-.29.13-.6.19-.95.19s-.66-.07-.95-.2M49.76,51.17c.34-.15.64-.36.88-.63.24-.26.43-.57.57-.91.13-.35.2-.71.2-1.09,0,0,0-.01,0-.02,0-.38-.07-.74-.2-1.08-.13-.34-.32-.64-.56-.9-.24-.26-.54-.47-.88-.62-.34-.16-.72-.23-1.14-.23s-.8.08-1.15.23c-.34.15-.64.37-.88.63-.24.26-.43.57-.57.91-.13.35-.2.71-.2,1.09v.02c0,.38.07.74.2,1.08.13.34.32.64.56.9.24.26.53.47.87.62.34.16.72.23,1.14.23s.8-.08,1.14-.23"/>
      <path class="cls-1" d="M48.61,51.52c-.44,0-.84-.08-1.19-.25-.35-.16-.66-.38-.91-.65-.25-.27-.45-.59-.58-.94-.14-.36-.21-.73-.21-1.13s.07-.78.21-1.14c.14-.36.34-.68.59-.95.25-.27.56-.5.92-.66.35-.16.76-.24,1.19-.24s.83.08,1.19.24c.36.16.66.38.92.65.25.27.45.59.58.94.13.34.2.71.21,1.08l.04.05-.04.05c0,.38-.08.75-.21,1.09-.14.36-.34.68-.59.95-.25.27-.56.49-.92.66h0c-.36.16-.76.24-1.19.24ZM48.63,45.8c-.4,0-.77.08-1.1.22-.33.15-.61.35-.84.6-.23.25-.41.54-.54.88-.13.33-.19.68-.19,1.04,0,.38.06.73.19,1.06.13.33.31.62.54.87.23.25.51.45.84.6.32.15.69.22,1.09.22s.77-.08,1.09-.22h0c.33-.15.61-.35.84-.6.23-.25.41-.54.54-.88.13-.33.19-.68.19-1.05v-.02c0-.36-.06-.71-.19-1.04-.12-.33-.31-.62-.54-.87-.23-.25-.51-.45-.84-.6-.33-.15-.69-.22-1.09-.22ZM48.63,51.15c-.36,0-.69-.07-1-.21-.3-.14-.57-.33-.79-.56-.22-.23-.39-.51-.51-.83-.12-.32-.18-.66-.18-1.01,0-.37.06-.71.18-1.02.12-.31.29-.59.51-.82.22-.24.48-.42.78-.56.61-.27,1.38-.27,1.99,0,.3.14.57.33.78.56.22.23.39.51.51.83.12.31.19.65.19,1.01s-.06.71-.18,1.02c-.12.31-.29.59-.51.82-.22.23-.48.42-.78.56-.3.14-.64.2-.99.2ZM48.61,46.17c-.32,0-.62.06-.9.18-.27.12-.51.29-.71.5-.2.21-.36.47-.46.75-.11.29-.17.6-.17.92s.06.65.17.94c.11.29.27.54.47.75.2.21.44.38.71.51.55.25,1.26.25,1.8,0,.27-.12.51-.29.71-.5.2-.21.35-.46.46-.75.11-.29.17-.59.17-.92s-.06-.65-.17-.94c-.11-.29-.27-.54-.47-.75-.2-.21-.44-.38-.71-.51-.27-.12-.58-.19-.9-.19Z"/>
      <path class="cls-1" d="M59.07,51.24c.28-.11.51-.26.71-.47.2-.2.36-.46.47-.76.11-.3.17-.65.17-1.05v-3.19h-.41v3.24c0,.33-.04.62-.13.88s-.21.46-.37.63c-.16.17-.36.3-.58.38-.23.08-.48.13-.76.13-.59,0-1.05-.18-1.38-.53-.33-.36-.49-.86-.49-1.52v-3.19h-.41v3.24c0,.39.05.73.17,1.03.11.29.27.54.47.75.2.2.44.36.72.46s.58.15.91.15.64-.05.92-.16"/>
      <path class="cls-1" d="M58.15,51.51c-.35,0-.67-.05-.95-.16-.29-.11-.55-.27-.76-.49-.21-.21-.38-.48-.5-.79-.12-.3-.17-.67-.17-1.07v-3.35h.64v3.31c0,.63.16,1.11.46,1.44.31.33.73.5,1.29.5.27,0,.51-.04.72-.12.21-.08.39-.2.54-.35.15-.16.27-.35.35-.59.08-.24.12-.52.12-.84v-3.35h.64v3.3c0,.41-.06.77-.17,1.09-.12.32-.28.59-.49.8-.21.22-.46.38-.76.49h0c-.29.11-.61.17-.96.17ZM56,45.89v3.12c0,.38.05.71.16.99.1.28.25.52.44.71.19.19.42.33.68.43.53.2,1.24.19,1.75,0,.26-.1.49-.25.67-.44.19-.19.34-.43.44-.72.1-.29.16-.63.16-1.01v-3.07h-.18v3.12c0,.34-.05.65-.14.92-.09.27-.23.49-.4.67-.17.18-.38.32-.62.41-.24.09-.5.13-.8.13-.62,0-1.12-.19-1.47-.57-.35-.38-.53-.92-.53-1.6v-3.08h-.18Z"/>
      <path class="cls-1" d="M65.56,48.87v-2.73h1.57c.25,0,.48.03.68.09.2.06.38.14.53.26.15.11.26.25.34.42.08.17.12.36.12.58v.02c0,.21-.04.4-.13.57-.08.17-.2.31-.35.43-.15.12-.33.21-.54.28-.21.06-.45.1-.7.1h-1.52ZM65.14,51.31h.41v-2.06h1.49c.29,0,.57-.04.83-.11.26-.07.49-.18.69-.33.2-.15.35-.33.47-.55.12-.22.17-.48.17-.77v-.02c0-.27-.05-.51-.15-.72-.1-.21-.24-.39-.42-.53-.18-.15-.4-.26-.65-.33-.25-.08-.53-.12-.84-.12h-2.01v5.54Z"/>
      <path class="cls-1" d="M65.67,51.43h-.64v-5.77h2.12c.31,0,.6.04.87.12.26.08.49.2.69.35.2.16.35.35.46.57.11.22.16.48.16.77,0,.32-.06.6-.19.84-.12.24-.29.44-.5.59-.21.16-.45.27-.73.35-.27.08-.56.11-.86.11h-1.38v2.06ZM65.26,51.19h.18v-2.06h1.61c.28,0,.54-.04.79-.11.25-.07.46-.17.65-.31.18-.14.33-.31.44-.51.11-.2.16-.44.16-.71s-.05-.49-.14-.68c-.09-.19-.22-.35-.39-.49-.17-.14-.38-.24-.61-.31-.24-.07-.51-.11-.8-.11h-1.89v5.3ZM67.07,48.99h-1.63v-2.96h1.68c.26,0,.5.03.71.09.22.06.41.16.57.27.16.12.29.28.38.46.09.18.13.4.13.63s-.05.45-.14.63c-.09.18-.22.34-.38.47-.16.13-.36.23-.58.29-.22.07-.47.1-.74.1ZM65.67,48.76h1.4c.24,0,.47-.03.67-.09.2-.06.36-.14.5-.25.14-.11.24-.24.32-.39.08-.15.12-.33.12-.51,0-.22-.04-.4-.11-.55-.07-.15-.18-.28-.31-.38-.13-.1-.3-.18-.49-.24-.19-.05-.41-.08-.65-.08h-1.45v2.5Z"/>
    </g>
  </g>
</svg>